<svg xmlns="http://www.w3.org/2000/svg" viewBox="0 0 261 31"><defs/><path fill="#FFF" d="M175.63 30.2c.79 0 1.72-.17 2.78-.52 1.58-.5 2.83-1.22 4.04-1.9l.33-.2a30.26 30.26 0 003.8-2.57c2.85-2.23 4.55-4.42 5.53-7.1.4-1.08.96-3.2.27-5.18a6.8 6.8 0 00-2.9-3.54c-.16-.12-1.92-1.39-5.26-1.39-3.05 0-6.4 1.06-9.94 3.15l-.11.06-.02.01a15.28 15.28 0 00-.32.18 20.69 20.69 0 00-2.33 1.6c-1.5 1.3-3.2 3.47-3.1 5.32.02.75.42 1.44 1.08 1.9.65.44 1.44.67 2.25.64 1.82 0 3.81-.89 5.17-1.64l.26-.15.71-.43.23-.14c1.94-1.17 3.94-2.37 6.2-3.07a5.26 5.26 0 011.56-.27c.23 0 .46.02.68.06.65.12 1.2.5 1.49 1.05.52.95.4 2.47-.32 3.85-.97 1.88-2.64 3.74-4.95 5.52a19.72 19.72 0 01-3.24 2.07l-.09.05c-.48.25-.98.47-1.5.66l-.07.02-.42.14c-2.27.54-.9-1.25-.9-1.25a16.4 16.4 0 011.56-1.4 28.3 28.3 0 00.94-.82l.07-.06c.4-.36.93-.84.9-1.54-.04-.93-1.09-1.5-2.07-1.53h-.08c-.94 0-1.84.5-2.42.92a7.4 7.4 0 00-1.63 1.65c-.6.85-1.87 3.04-.64 4.8.5.7 1.32 1.05 2.46 1.05zM13.83 29c.54 0 .91-.1 1.13-.3.21-.2.36-.58.44-1.14l.96-6.76h5.04c.53 0 .9-.13 1.08-.38.18-.25.28-.6.28-1.06 0-.45-.1-.8-.28-1.04-.19-.24-.55-.36-1.08-.36h-4.64l.76-5.56h3.88c.53 0 .9-.13 1.08-.38.18-.25.28-.6.28-1.06 0-.45-.1-.8-.28-1.04-.19-.24-.55-.36-1.08-.36h-3.48l.96-6.76c.08-.59-.02-.97-.3-1.16a2.11 2.11 0 00-1.18-.28c-.53 0-.9.1-1.12.3-.22.2-.36.58-.44 1.14l-.96 6.76H9.4l.96-6.76c.08-.59-.02-.97-.3-1.16a2.11 2.11 0 00-1.18-.28c-.53 0-.9.1-1.12.3-.21.2-.36.58-.44 1.14l-.96 6.76h-5c-.53 0-.9.12-1.08.36-.19.24-.28.59-.28 1.04 0 .45.1.8.28 1.06.19.25.55.38 1.08.38h4.6l-.76 5.56H1.36c-.53 0-.9.12-1.08.36-.19.24-.28.59-.28 1.04 0 .45.1.8.28 1.06.19.25.55.38 1.08.38H4.8l-.96 6.76c-.08.59.02.97.3 1.16.28.19.67.28 1.18.28.53 0 .9-.1 1.12-.3.21-.2.36-.58.44-1.14l.96-6.76h5.48l-.96 6.76c-.08.59.02.97.3 1.16.28.19.67.28 1.18.28zm-.11-11.04H8.24L9 12.4h5.48l-.76 5.56zM33.2 29.52c.98 0 1.86-.1 2.62-.32a7.81 7.81 0 001.96-.82 6.5 6.5 0 001.38-1.1c.37-.4.7-.79.96-1.16v1.2c0 .61.09 1.1.26 1.44.17.35.64.52 1.42.52 1.15 0 1.72-.44 1.72-1.32V15.2a7.89 7.89 0 00-.44-2.62 5.82 5.82 0 00-1.4-2.22 6.9 6.9 0 00-2.54-1.54 11.26 11.26 0 00-3.86-.58c-1.36 0-2.51.17-3.46.5-.95.33-1.72.71-2.32 1.14a6.5 6.5 0 00-1.82 1.88 1.86 1.86 0 00-.24.96c0 .4.18.73.54.98a2 2 0 001.18.38c.3 0 .53-.05.72-.16.19-.1.41-.32.68-.64l.58-.64a4 4 0 01.88-.68 6 6 0 013.1-.8c1.76 0 3.03.37 3.82 1.12.78.75 1.18 1.88 1.18 3.4v.8l-2.08.04c-2.3.05-4.2.26-5.7.62s-2.72.85-3.62 1.48a5.24 5.24 0 00-1.92 2.26 7.29 7.29 0 00-.56 2.88c0 .8.14 1.55.42 2.26.28.7.7 1.32 1.28 1.84.57.52 1.3.93 2.16 1.22.86.3 1.9.44 3.1.44zm.48-2.76c-1.44 0-2.48-.33-3.1-.98a3.26 3.26 0 01-.94-2.34c0-.64.11-1.21.34-1.72.22-.5.64-.94 1.26-1.3a8.23 8.23 0 012.52-.86 23.9 23.9 0 014.16-.36l2.2-.04v1.68c0 1.23-.23 2.2-.68 2.92a6.9 6.9 0 01-5.76 3zm17.6-21.44c.61 0 1.12-.2 1.54-.58.41-.39.62-.93.62-1.62 0-.7-.2-1.23-.62-1.62a2.17 2.17 0 00-1.54-.58c-.62 0-1.13.2-1.54.58a2.1 2.1 0 00-.62 1.62c0 .7.2 1.23.62 1.62.41.39.92.58 1.54.58zm0 23.96c.53 0 .95-.11 1.26-.34.3-.23.46-.65.46-1.26V10.24c0-.61-.16-1.03-.46-1.26-.3-.23-.73-.34-1.26-.34-.54 0-.95.11-1.24.34-.3.23-.44.65-.44 1.26v17.44c0 .61.14 1.03.44 1.26.3.23.7.34 1.24.34zm9.48 0c.53 0 .95-.11 1.26-.34.3-.23.46-.65.46-1.26V19.6c0-4.99 2-7.48 6-7.48.61 0 1.05-.15 1.32-.44.26-.3.4-.75.4-1.36 0-.59-.14-1.01-.4-1.28-.27-.27-.7-.4-1.32-.4-1.23 0-2.38.3-3.46.9a6.98 6.98 0 00-2.7 2.9v-2.28c0-.59-.14-.99-.42-1.2a1.99 1.99 0 00-1.22-.32c-.53 0-.93.1-1.2.32-.27.21-.4.61-.4 1.2v17.52c0 .61.15 1.03.44 1.26.3.23.7.34 1.24.34zm18.96.36c1.25 0 2.3-.18 3.12-.54.82-.36 1.24-.86 1.24-1.5 0-.45-.14-.84-.42-1.16-.28-.32-.6-.48-.98-.48-.24 0-.45.04-.62.12a23.88 23.88 0 01-1.16.48c-.23.08-.5.12-.82.12-.86 0-1.46-.21-1.82-.64-.36-.43-.54-1.23-.54-2.4V11.8h3.76c.53 0 .9-.13 1.08-.38.18-.25.28-.6.28-1.06 0-.45-.1-.8-.28-1.06-.19-.25-.55-.38-1.08-.38h-3.76V3.76c0-.77-.38-1.16-1.12-1.16-.56 0-1.08.15-1.56.44-.3.19-.49.4-.58.64-.1.24-.14.61-.14 1.12v4.12h-1.8c-.54 0-.9.13-1.08.38-.19.25-.28.6-.28 1.06 0 .45.1.8.28 1.06.18.25.54.38 1.08.38h1.8v12.6c0 1.7.44 3 1.32 3.9.88.9 2.24 1.34 4.08 1.34zm16.68.04c1.14 0 2.14-.13 3-.4.85-.27 1.58-.6 2.18-1 .6-.4 1.1-.82 1.48-1.26.39-.44.7-.85.94-1.22.3-.48.44-.9.44-1.24 0-.4-.18-.72-.54-.96a1.96 1.96 0 00-1.1-.36c-.35 0-.6.07-.78.2a2.73 2.73 0 00-.54.6c-.16.21-.37.47-.62.76a5.31 5.31 0 01-.98.86 5.97 5.97 0 01-3.48 1.02c-1.98 0-3.5-.59-4.58-1.76s-1.62-2.84-1.62-5h13.6c1.1 0 1.64-.48 1.64-1.44 0-1.44-.2-2.79-.6-4.04a9.5 9.5 0 00-1.76-3.26 8.04 8.04 0 00-2.88-2.16 9.5 9.5 0 00-3.96-.78c-1.47 0-2.8.26-3.98.78a8.65 8.65 0 00-3.04 2.2 9.92 9.92 0 00-1.94 3.38c-.46 1.3-.68 2.76-.68 4.36 0 1.57.22 3.02.68 4.34a9.71 9.71 0 001.96 3.4 8.76 8.76 0 003.1 2.2c1.21.52 2.56.78 4.06.78zm5.6-12.76H90.36c.08-.77.26-1.51.54-2.22.28-.7.66-1.32 1.14-1.84a5.25 5.25 0 011.76-1.24c.7-.3 1.5-.46 2.44-.46.93 0 1.75.16 2.44.48.7.32 1.27.74 1.74 1.26a5.5 5.5 0 011.08 1.84c.25.7.42 1.43.5 2.18zm10 12.36c.53 0 .95-.11 1.26-.34.3-.23.46-.65.46-1.26V2.56c0-.61-.16-1.03-.46-1.26-.3-.23-.73-.34-1.26-.34-.54 0-.95.11-1.24.34-.3.23-.44.65-.44 1.26v25.12c0 .61.15 1.03.44 1.26.3.23.7.34 1.24.34zm16.88 0c1.04 0 1.76-.22 2.16-.66.4-.44.6-.97.6-1.58v-21h7.08c.77 0 1.32-.24 1.64-.72.32-.48.48-1.04.48-1.68 0-.64-.18-1.2-.52-1.68a1.76 1.76 0 00-1.52-.72h-19.6c-.7 0-1.2.24-1.54.72-.34.48-.5 1.04-.5 1.68 0 .64.16 1.2.48 1.68.32.48.86.72 1.64.72h6.76v21c0 1.5.94 2.24 2.84 2.24zm31.24 0c.93 0 1.62-.17 2.08-.52.45-.35.68-.9.68-1.68v-10.6c0-.99-.07-2.03-.2-3.14a6.1 6.1 0 00-1.24-3.02 6.92 6.92 0 00-2.34-1.9 7.85 7.85 0 00-3.46-.66c-1.5 0-2.75.31-3.76.94a8.2 8.2 0 00-2.32 2.02V3.24c0-.48-.07-.87-.22-1.16a1.66 1.66 0 00-.6-.68 2.58 2.58 0 00-.86-.34c-.32-.07-.65-.1-1-.1-1.01 0-1.74.2-2.18.58-.44.39-.66.94-.66 1.66v23.84c0 .8.24 1.37.72 1.72s1.13.52 1.96.52c1.01 0 1.74-.18 2.18-.54.44-.36.66-.95.66-1.78v-8.18c0-.38 0-.83.02-1.34.01-.61.09-1.16.22-1.64.08-.32.21-.67.4-1.04.19-.37.45-.72.8-1.04a4.3 4.3 0 011.3-.8 4.78 4.78 0 011.82-.32c.7 0 1.29.1 1.78.32.5.21.86.59 1.1 1.12.24.53.36 1.39.36 2.56v10.48c0 .8.26 1.37.78 1.7.52.33 1.18.5 1.98.5zm53.84 0c.93 0 1.62-.17 2.08-.52.45-.35.68-.9.68-1.68v-10.6c0-.99-.07-2.03-.2-3.14a6.1 6.1 0 00-1.24-3.02 6.8 6.8 0 00-2.38-1.9 8 8 0 00-3.46-.66 7.45 7.45 0 00-6.16 3.12v-.48c0-.93-.27-1.55-.8-1.86a3.62 3.62 0 00-1.84-.46c-1.01 0-1.73.23-2.14.68a2.5 2.5 0 00-.62 1.76v16.52c0 .8.24 1.37.72 1.72s1.13.52 1.96.52c1.01 0 1.74-.18 2.18-.54.44-.36.66-.95.66-1.78v-8.1c0-.38 0-.83.02-1.34.01-.61.09-1.16.22-1.64.08-.32.21-.67.4-1.04.19-.37.45-.73.8-1.06a4.44 4.44 0 011.28-.84c.5-.23 1.12-.34 1.84-.34.7 0 1.29.1 1.78.32.5.21.86.59 1.1 1.12.24.53.36 1.39.36 2.56v10.48c0 .8.26 1.37.78 1.7.52.33 1.18.5 1.98.5zm23.68 0c.85 0 1.54-.21 2.06-.64.52-.43.78-.95.78-1.56 0-.43-.17-.9-.52-1.44l-6.04-9.28 4.56-4c.64-.59.96-1.16.96-1.72 0-.35-.06-.65-.18-.92a2.41 2.41 0 00-.5-.72 3.47 3.47 0 00-.86-.62c-.34-.17-.7-.26-1.1-.26a2.6 2.6 0 00-1.48.4c-.4.27-.87.65-1.4 1.16l-6.04 5.6V3.08c0-.77-.27-1.32-.82-1.64a3.61 3.61 0 00-1.86-.48c-1.92 0-2.88.79-2.88 2.36v23.8c0 1.44.95 2.16 2.84 2.16.85 0 1.52-.17 2-.52s.72-.92.72-1.72v-5.52l1.96-1.84 4.68 7.36c.43.7.87 1.24 1.32 1.64.45.4 1.05.6 1.8.6zm13.84.4c2.8 0 5.01-.56 6.64-1.68 1.63-1.12 2.44-2.8 2.44-5.04 0-1.95-.54-3.41-1.62-4.4-1.08-.99-2.83-1.7-5.26-2.16l-2.12-.4c-1.2-.21-1.98-.5-2.34-.86a1.73 1.73 0 01-.54-1.26c0-.53.25-.98.74-1.34.5-.36 1.26-.54 2.3-.54a7.1 7.1 0 012.6.4c.67.27 1.36.61 2.08 1.04.21.13.47.26.78.38.3.12.6.18.9.18.35 0 .63-.07.86-.22a2.62 2.62 0 001.18-2.26c0-.3-.07-.59-.2-.88-.13-.3-.37-.59-.72-.88a9.62 9.62 0 00-2.6-1.34 13.2 13.2 0 00-4.56-.66c-1.28 0-2.46.15-3.54.44-1.08.3-2 .73-2.78 1.3a6.04 6.04 0 00-1.8 2.1 6.1 6.1 0 00-.64 2.84c0 1.01.16 1.87.48 2.58.32.7.77 1.3 1.36 1.8.58.5 1.28.9 2.1 1.2a14 14 0 002.7.7l2.4.4c1.12.19 1.86.48 2.22.88.36.4.54.84.54 1.32 0 .64-.26 1.15-.76 1.52-.5.37-1.34.56-2.48.56-.94 0-1.7-.12-2.32-.36a9.65 9.65 0 01-1.62-.8l-1.26-.8a2.12 2.12 0 00-1.16-.36c-.45 0-.85.13-1.18.4-.34.27-.6.6-.82 1-.27.48-.4.99-.4 1.52 0 .3.08.6.26.9.17.3.43.58.78.82.77.56 1.8 1.03 3.06 1.4 1.26.37 2.7.56 4.3.56z"/></svg>