<svg xmlns="http://www.w3.org/2000/svg" xmlns:xlink="http://www.w3.org/1999/xlink" viewBox="0 0 61 24"><defs/><defs><path id="a" d="M0 0h40v14H0z"/></defs><g fill="none" fill-rule="evenodd"><path d="M-2 2h20.23v20H-2z"/><path fill="#E40000" d="M5.01 19.5c.5 0 1.08-.12 1.74-.35.98-.34 1.76-.81 2.52-1.27l.2-.13a18.8 18.8 0 002.38-1.72 10.48 10.48 0 003.45-4.76c.25-.72.6-2.14.17-3.47a4.5 4.5 0 00-1.81-2.37c-.1-.08-1.2-.93-3.29-.93-1.9 0-3.99.7-6.2 2.1l-.07.05-.2.13a12.73 12.73 0 00-1.46 1.07c-.94.87-2 2.32-1.94 3.56.02.5.27.97.68 1.27.4.3.9.45 1.4.43 1.14 0 2.38-.6 3.23-1.1l.16-.1.44-.28.15-.1c1.2-.78 2.45-1.59 3.86-2.06.32-.11.65-.17.98-.18a2 2 0 01.42.05c.4.08.75.34.93.7.33.64.25 1.65-.2 2.58a11.3 11.3 0 01-3.09 3.69c-.62.53-1.3 1-2.02 1.4l-.06.02c-.3.17-.6.32-.93.44l-.05.02-.26.1c-1.41.36-.55-.84-.55-.84.3-.34.62-.65.96-.95.2-.17.4-.35.59-.54l.04-.04c.25-.24.59-.57.57-1.04-.03-.62-.68-1-1.3-1.02h-.04c-.6 0-1.15.33-1.52.62-.4.31-.73.68-1.01 1.1-.38.57-1.17 2.04-.4 3.21.31.47.83.71 1.53.71z"/><g transform="translate(21 5)"><mask id="b" fill="#fff"><use xlink:href="#a"/></mask><path fill="#E40000" d="M23.69 1.22l-2.58.41v9.21c0 2.07 1.22 3.04 3.28 3.04.5 0 .96-.09.96-.09v-1.53l-.37-.01c-1.08-.04-1.3-.62-1.3-1.3V5.76h1.67V3.94h-1.66V1.22zm15.93 11.02c-1.05-.07-1.27-.53-1.27-1.28V1.21l-2.52.42v9.17c0 2.17 1.2 3.1 3.2 3.1.44 0 .97-.1.97-.1v-1.55h-.38zM14.4 5.71v8.1h2.56V6.18c.34-.32 1.05-.6 1.72-.63.63-.02 1.04.1 1.04.1l.7-1.56c-.27-.14-.93-.3-1.69-.3-1.1 0-2.8.32-4.33 1.91zm14.53 1.9h2.72c0-.73-.16-1.93-1.28-1.93-1 0-1.4.99-1.44 1.94zm4.7 3.79l.7 1.44s-.8.57-1.89.9c-.56.17-1.19.26-1.78.26-1.1 0-2.04-.3-2.72-.86a5.27 5.27 0 01-1.7-4.1c.02-2.52 1.17-5.2 4.13-5.2 2.65 0 3.86 1.6 3.91 5.09v.24h-5.43c-.05 1.05.15 2.04.6 2.52.3.33.77.55 1.46.55a4.9 4.9 0 002.71-.84zM5.42 9.03H4.4c-1.26 0-1.73.83-1.75 1.57-.02.9.44 1.66 1.45 1.66a2.5 2.5 0 001.31-.32V9.03zm2.55-1.86v5.26a5.95 5.95 0 01-4.24 1.55c-2.18 0-3.74-1.6-3.74-3.44.04-1.94 1.53-3.18 3.93-3.18h1.5v-.5c0-.87-.38-1.28-1.3-1.32-.75-.03-1.58.2-2.37.55l-.38.18L.7 4.79 1 4.63a7.57 7.57 0 013.39-.88c1.74 0 3.6.85 3.6 3.4zm1.89 6.63h2.51V3.94l-2.51.4v9.46zM12.29.47c.3.3.45.7.44 1.11 0 .88-.7 1.57-1.6 1.57-.9 0-1.6-.7-1.6-1.58 0-.86.73-1.57 1.62-1.57.44 0 .84.17 1.14.47z" mask="url(#b)"/></g></g></svg>