<svg xmlns="http://www.w3.org/2000/svg" viewBox="0 0 24 24"><defs/><g fill="none" fill-rule="evenodd" transform="translate(2 3)"><path stroke="#3A3D43" stroke-linecap="round" d="M10.49 10.64l1.99-1.66"/><path fill="#3A3D43" d="M5.66 4.4c2.58 3.09 6.96 8.37 9.87 12.02a8.85 8.85 0 01-5.28 1.89 7.88 7.88 0 01-2.86-.54l.1 1.49a.5.5 0 01-.5.53H.94a.5.5 0 01-.42-.78l3.01-4.5a7.59 7.59 0 01-1.07-3.9 7.65 7.65 0 013.2-6.21z"/><ellipse cx="12.59" cy="8.89" fill="#3A3D43" rx="1.15" ry="1.14"/><path fill="#A4A4A4" fill-rule="nonzero" d="M15.64 1.92a4.45 4.45 0 013.03 1.59 4.45 4.45 0 011.04 3.26.64.64 0 01-.23.44.65.65 0 01-.48.15.66.66 0 01-.6-.7 3.15 3.15 0 00-.73-2.31 3.13 3.13 0 00-2.14-1.12.66.66 0 01-.6-.71.66.66 0 01.71-.6zM14.5 4.7a2.53 2.53 0 012.29 2.72.65.65 0 01-.24.45.64.64 0 01-.47.15.66.66 0 01-.6-.7 1.2 1.2 0 00-.28-.89A1.17 1.17 0 0014.4 6a.66.66 0 01-.6-.71.66.66 0 01.71-.6z"/></g></svg>