<svg xmlns="http://www.w3.org/2000/svg" viewBox="0 0 24 24"><defs/><path stroke="#000" stroke-width=".5" d="M13.24 13.65v.82c0 .17.11.28.28.28.16 0 .27-.11.27-.28v-.82h.83c.16 0 .27-.11.27-.28 0-.16-.11-.27-.28-.27h-.82v-.82c0-.17-.1-.28-.27-.28s-.28.11-.28.28v.82h-.82c-.17 0-.28.11-.28.28 0 .16.11.27.28.27h.82zM16.54 1h-9.9A1.62 1.62 0 005 2.65v18.7c0 .93.71 1.65 1.65 1.65h9.89a1.62 1.62 0 001.65-1.65V2.65A1.62 1.62 0 0016.54 1zm0 .55c.6 0 1.1.5 1.1 1.1v18.7c0 .6-.5 1.1-1.1 1.1h-9.9a1.1 1.1 0 01-1.1-1.1V2.65c0-.6.5-1.1 1.1-1.1h9.9zM12.42 20.8h-1.65c-.17 0-.28-.11-.28-.28 0-.16.11-.27.28-.27h1.65c.16 0 .27.11.27.28 0 .16-.1.27-.27.27zM9.12 8.7c-.17 0-.28.11-.28.28v1.1c0 .16.11.27.28.27h1.1c.16 0 .27-.11.27-.28v-1.1c0-.16-.1-.27-.27-.27h-1.1zm0 3.85c-.17 0-.28.11-.28.27v1.1c0 .17.11.28.28.28h1.1c.16 0 .27-.11.27-.28v-1.1c0-.16-.1-.27-.27-.27h-1.1zm3.85-3.85c-.17 0-.28.11-.28.28v1.1c0 .16.11.27.28.27h1.1c.16 0 .27-.11.27-.28v-1.1c0-.16-.11-.27-.28-.27h-1.1zm-7.42 9.9h12.09v-.55H5.55v.55zm0-13.75h12.09V4.3H5.55v.55z"/></svg>