<svg xmlns="http://www.w3.org/2000/svg" xmlns:xlink="http://www.w3.org/1999/xlink" viewBox="0 0 48 26"><defs/><defs><path id="a" d="M0 0c3.02 10.87 17.23 12.51 28.6 8.06 7.45-2.92 14.89-.87 19.4 1.07v4.63a39.08 39.08 0 00-25.83-1.38C10.83 15.68 3.85 14.85 0 13.6V0z"/><path id="c" d="M0 0h48v11.5H0z"/><path id="e" d="M0 .02h48v11.7H0z"/><path id="g" d="M0 .02h48v11.96H0z"/><path id="i" d="M0 0h48v12.26H0z"/><path id="k" d="M0 .01h48v12.6H0z"/><path id="m" d="M0 .02h48v13.04H0z"/><path id="o" d="M0 .02h48v13.47H0z"/><path id="q" d="M0 0h48v14.02H0z"/><path id="s" d="M0 0h48v14.6H0z"/><path id="u" d="M0 .02h48v15.25H0z"/><path id="w" d="M0 0h48v15.95H0z"/><path id="y" d="M0 0h48v16.7H0z"/><path id="A" d="M0 .01h48v17.51H0z"/><path id="C" d="M0 .01h48v18.35H0z"/><path id="E" d="M0 .02h48v19.29H0z"/><path id="G" d="M0 0h48v20.2H0z"/><path id="I" d="M0 0h48v21.21H0z"/><path id="K" d="M0 .01h48v22.24H0z"/><path id="M" d="M0 .02h48v23.32H0z"/><path id="O" d="M0 .01h48V24.4H0z"/><path id="Q" d="M.02.02h44.6v25.5H.02z"/></defs><g fill="none" fill-rule="evenodd" opacity=".2" transform="matrix(-1 0 0 1 48 -1)"><mask id="b" fill="#fff"><use xlink:href="#a"/></mask><path d="M48 9.13c-4.51-1.94-11.96-4-19.4-1.07C17.24 12.5 3.02 10.86 0 0v13.6c3.85 1.25 10.83 2.08 22.17-1.22A39.07 39.07 0 0148 13.75V9.13z" mask="url(#b)"/><g transform="translate(0 3.74)"><mask id="d" fill="#fff"><use xlink:href="#c"/></mask><path fill="#FFF" d="M48 10.31c-2.53.23-5.03-.13-7.45-1.54-1.62-.93-2.98-2.2-4.3-3.43-1.67-1.56-3.4-3.18-5.68-4.11-4.23-1.74-8.76-1.62-13.84.38-4.42 1.73-8.66 4.64-12.4 7.21l-.78.55A28.94 28.94 0 010 11.45v.06a29 29 0 003.58-2.1l.79-.54c7.44-5.12 16.7-11.49 26.18-7.59 2.27.93 4 2.54 5.67 4.1a23.79 23.79 0 004.3 3.44A12.32 12.32 0 0048 10.37v-.06z" mask="url(#d)"/></g><g transform="translate(0 4.06)"><mask id="f" fill="#fff"><use xlink:href="#e"/></mask><path fill="#FFF" d="M48 9.51c-3.04.28-5.56-.23-7.93-1.56a26.26 26.26 0 01-4.2-3.17c-1.8-1.56-3.5-3.03-5.78-3.85C21.38-2.2 13.05 3.33 5.7 8.22l-.92.61-1.43.95A28.8 28.8 0 010 11.66v.06a28.84 28.84 0 003.38-1.9 426.26 426.26 0 002.35-1.56C13.07 3.4 21.4-2.14 30.07.98c2.28.82 3.97 2.29 5.76 3.84A25.75 25.75 0 0040.04 8c1.7.96 3.47 1.48 5.45 1.61.8.06 1.63.04 2.51-.03V9.5z" mask="url(#f)"/></g><g transform="translate(0 4.33)"><mask id="h" fill="#fff"><use xlink:href="#g"/></mask><path fill="#FFF" d="M48 8.73c-3.23.27-5.94-.25-8.4-1.59a27.51 27.51 0 01-4.1-2.89c-1.84-1.48-3.59-2.89-5.9-3.59-3.57-1.09-7.4-.79-11.7.93-3.79 1.5-7.43 3.88-10.96 6.18a263.82 263.82 0 01-3.8 2.43A28.82 28.82 0 010 11.91v.06a28.88 28.88 0 003.18-1.72l1.45-.92c.77-.5 1.57-1 2.34-1.51C13.83 3.35 21.6-1.72 29.59.72c2.3.7 4.04 2.1 5.88 3.57a27.08 27.08 0 004.1 2.9A14.48 14.48 0 0048 8.79v-.05z" mask="url(#h)"/></g><g transform="translate(0 4.55)"><mask id="j" fill="#fff"><use xlink:href="#i"/></mask><path fill="#FFF" d="M48 8.01c-3.43.26-6.29-.28-8.88-1.64-1.46-.76-2.72-1.7-3.95-2.61C33.27 2.34 31.46 1 29.12.42 21.75-1.4 14.79 3.1 8.06 7.45a179.36 179.36 0 01-3.64 2.32l-1.47.89C2 11.23 1.01 11.74 0 12.19v.07a29.4 29.4 0 002.98-1.55A119.9 119.9 0 008.09 7.5C14.81 3.15 21.76-1.35 29.11.48c2.32.57 4.12 1.91 6.03 3.32 1.23.91 2.5 1.85 3.95 2.61C41.7 7.8 44.56 8.32 48 8.07v-.06z" mask="url(#j)"/></g><g transform="translate(0 4.74)"><mask id="l" fill="#fff"><use xlink:href="#k"/></mask><path fill="#FFF" d="M48 7.39c-3.63.21-6.63-.35-9.36-1.74a32.78 32.78 0 01-3.76-2.32C32.9 1.98 31.02.7 28.63.25c-6.78-1.3-13.27 2.93-19.53 7a133.35 133.35 0 01-6.35 3.93c-.88.5-1.8.96-2.75 1.37v.06a28.98 28.98 0 002.78-1.38 89.33 89.33 0 001.49-.86A132.6 132.6 0 009.13 7.3c6.25-4.07 12.73-8.29 19.5-7 2.37.45 4.24 1.73 6.22 3.08 1.18.8 2.39 1.63 3.77 2.32 2.73 1.4 5.74 1.96 9.38 1.74V7.4z" mask="url(#l)"/></g><g transform="translate(0 4.86)"><mask id="n" fill="#fff"><use xlink:href="#m"/></mask><path fill="#FFF" d="M48 6.86C44.17 7 41.03 6.4 38.16 5a38.73 38.73 0 01-3.5-2.02C32.58 1.69 30.6.44 28.15.13c-2.8-.36-5.8.2-9.18 1.75-3 1.37-6.01 3.36-8.92 5.29-1.96 1.3-3.99 2.63-5.99 3.77l-1.5.84C1.72 12.22.87 12.63 0 13v.06a28.93 28.93 0 002.58-1.23l1.51-.84c2-1.14 4.03-2.48 5.98-3.78C15.9 3.36 21.91-.62 28.14.18c2.44.32 4.41 1.55 6.5 2.86 1.1.69 2.23 1.4 3.5 2.02 2.87 1.4 6.02 2 9.86 1.85v-.05z" mask="url(#n)"/></g><g transform="translate(0 4.94)"><mask id="p" fill="#fff"><use xlink:href="#o"/></mask><path fill="#FFF" d="M48 6.37c-4.04.04-7.32-.6-10.31-2a41.4 41.4 0 01-3.2-1.71C32.28 1.4 30.19.21 27.67.04c-2.6-.17-5.37.48-8.49 2a68.35 68.35 0 00-8.31 5.08c-2.28 1.54-4.63 3.13-6.99 4.42-.48.27-1 .54-1.53.82-.76.39-1.54.74-2.35 1.07v.06c.81-.33 1.61-.7 2.38-1.09a66.65 66.65 0 001.53-.8 89.46 89.46 0 006.99-4.43C16.56 3.34 21.9-.28 27.66.1c2.51.16 4.6 1.35 6.8 2.6a44.3 44.3 0 003.2 1.72c3 1.4 6.29 2.04 10.34 2v-.05z" mask="url(#p)"/></g><g transform="translate(0 4.99)"><mask id="r" fill="#fff"><use xlink:href="#q"/></mask><path fill="#FFF" d="M48 6l-.42-.02c-4.06-.13-7.36-.82-10.37-2.17-1.03-.47-1.98-.98-2.9-1.47C31.96 1.1 29.76-.08 27.17.01c-5.3.19-10.26 3.6-15.51 7.2a80.98 80.98 0 01-7.97 5.03A29.12 29.12 0 010 13.96v.06a29.09 29.09 0 002.18-.95 60 60 0 001.55-.78 81.32 81.32 0 007.97-5.04c5.24-3.6 10.2-7 15.48-7.18 2.58-.1 4.67 1.03 7.1 2.32.92.5 1.88 1 2.9 1.47 3.02 1.36 6.33 2.05 10.4 2.18l.42.01v-.06z" mask="url(#r)"/></g><g transform="translate(0 4.96)"><mask id="t" fill="#fff"><use xlink:href="#s"/></mask><path fill="#FFF" d="M48 5.72l-.99-.08a31.69 31.69 0 01-12.67-3.46C31.7.92 29.44-.17 26.69.02c-4.87.34-9.44 3.66-14.28 7.18-2.85 2.07-5.8 4.22-8.89 5.78A38.4 38.4 0 010 14.55v.06a28.4 28.4 0 001.98-.83 39 39 0 001.57-.75c3.1-1.56 6.04-3.7 8.9-5.78C17.28 3.73 21.85.4 26.7.08c2.72-.19 4.99.9 7.62 2.15.76.36 1.55.74 2.4 1.1A31.74 31.74 0 0047 5.7l.99.07v-.05z" mask="url(#t)"/></g><g transform="translate(0 4.89)"><mask id="v" fill="#fff"><use xlink:href="#u"/></mask><path fill="#FFF" d="M48 5.58l-1.56-.2a39.58 39.58 0 01-10.18-2.55 97.48 97.48 0 01-1.87-.8C31.54.78 29.08-.29 26.21.11c-4.47.63-8.67 3.83-13.13 7.22-3.1 2.36-6.3 4.8-9.74 6.46A43.78 43.78 0 010 15.2v.06a28.3 28.3 0 001.78-.7 44.3 44.3 0 001.59-.73c3.44-1.67 6.65-4.1 9.75-6.47C17.56 4 21.77.8 26.22.17c2.85-.4 5.3.67 8.15 1.91.6.26 1.22.54 1.87.8a39.68 39.68 0 0010.2 2.55l1.56.2v-.05z" mask="url(#v)"/></g><g transform="translate(0 4.79)"><mask id="x" fill="#fff"><use xlink:href="#w"/></mask><path fill="#FFF" d="M48 5.52l-2.13-.4a54.57 54.57 0 01-10.09-2.73l-1.24-.5C31.44.63 28.75-.45 25.73.2c-4.1.88-7.95 3.97-12.04 7.25-3.31 2.65-6.74 5.4-10.52 7.16A40.71 40.71 0 010 15.9v.05a28.43 28.43 0 001.58-.6c.57-.23 1.1-.46 1.6-.7 3.8-1.76 7.23-4.5 10.54-7.16C17.8 4.22 21.66 1.13 25.74.26c3-.65 5.68.43 8.78 1.68l1.24.5a53.9 53.9 0 0010.1 2.73l2.14.4v-.05z" mask="url(#x)"/></g><g transform="translate(0 4.64)"><mask id="z" fill="#fff"><use xlink:href="#y"/></mask><path fill="#FFF" d="M48 5.6a112.11 112.11 0 00-2.7-.68A82.63 82.63 0 0135.3 2l-.5-.19C31.39.53 28.44-.59 25.24.36c-3.73 1.1-7.27 4.1-11.02 7.26C10.72 10.6 7.11 13.65 3 15.5a38.35 38.35 0 01-3 1.15v.06c.47-.16.93-.32 1.38-.5a37.3 37.3 0 001.63-.67c4.13-1.84 7.75-4.9 11.25-7.87C18 4.5 21.53 1.5 25.26.4c3.18-.93 6.12.17 9.52 1.46l.5.19A82.63 82.63 0 0045.3 4.97c.92.22 1.82.45 2.71.69V5.6z" mask="url(#z)"/></g><g transform="translate(0 4.42)"><mask id="B" fill="#fff"><use xlink:href="#A"/></mask><path fill="#FFF" d="M48 5.83a79.08 79.08 0 00-3.27-1.06l-1.21-.35c-2.68-.79-5.7-1.68-8.7-2.74C31.4.45 28.16-.7 24.76.57c-3.4 1.28-6.64 4.19-10.06 7.27-3.66 3.29-7.44 6.69-11.88 8.58a34.87 34.87 0 01-1.65.65l-1.16.4v.05c.4-.13.8-.26 1.18-.4a34.93 34.93 0 001.65-.65c4.45-1.9 8.24-5.3 11.9-8.6C18.15 4.8 21.37 1.9 24.77.63c3.38-1.26 6.61-.11 10.04 1.11 2.98 1.06 6.02 1.95 8.69 2.74l1.22.36c1.1.33 2.2.69 3.28 1.06v-.06z" mask="url(#B)"/></g><g transform="translate(0 4.2)"><mask id="D" fill="#fff"><use xlink:href="#C"/></mask><path fill="#FFF" d="M48 6.19a65.65 65.65 0 00-3.84-1.53c-1.78-.63-3.74-1.28-5.8-1.95a234 234 0 01-4-1.33C30.77.18 27.54-.7 24.26.81c-3.11 1.43-6.06 4.26-9.19 7.25-3.78 3.62-7.69 7.37-12.45 9.3A32.58 32.58 0 01.96 18l-.96.3v.07c.33-.1.66-.2.98-.32a32.89 32.89 0 001.67-.62c4.77-1.94 8.69-5.7 12.47-9.32 3.12-3 6.08-5.81 9.18-7.25 3.26-1.5 6.48-.63 10.05.57 1.34.46 2.69.9 4 1.33 2.06.68 4.02 1.32 5.8 1.95 1.31.46 2.6 1 3.86 1.54v-.06z" mask="url(#D)"/></g><g transform="translate(0 3.89)"><mask id="F" fill="#fff"><use xlink:href="#E"/></mask><path fill="#FFF" d="M48 6.73a59.42 59.42 0 00-4.4-2.12 122.45 122.45 0 00-9.72-3.46c-3.98-1.26-7.05-1.71-10.1-.03-2.83 1.56-5.52 4.32-8.37 7.24-3.88 3.98-7.89 8.1-12.96 10.06a30.75 30.75 0 01-2.45.83v.06a30.7 30.7 0 002.47-.84c5.08-1.97 9.1-6.09 12.98-10.07 2.85-2.92 5.53-5.67 8.36-7.23C26.84-.5 29.9-.06 33.86 1.2c4 1.28 7.18 2.41 9.71 3.47A58.1 58.1 0 0148 6.79v-.06z" mask="url(#F)"/></g><g transform="translate(0 3.6)"><mask id="H" fill="#fff"><use xlink:href="#G"/></mask><path fill="#FFF" d="M48 7.37a59.01 59.01 0 00-4.97-2.81A67.84 67.84 0 0033.4.92c-3.3-1-6.82-1.62-10.1.5-2.59 1.67-5.04 4.35-7.63 7.2-3.95 4.34-8.03 8.82-13.4 10.8a28.84 28.84 0 01-2.27.73v.06l.58-.17c.6-.18 1.18-.37 1.7-.56 5.39-2 9.48-6.48 13.43-10.82 2.6-2.85 5.04-5.53 7.62-7.2 3.26-2.1 6.76-1.48 10.05-.5A67.78 67.78 0 0143 4.62a58.4 58.4 0 015 2.83v-.07z" mask="url(#H)"/></g><g transform="translate(0 3.23)"><mask id="J" fill="#fff"><use xlink:href="#I"/></mask><path fill="#FFF" d="M48 8.21l-.74-.52a53.22 53.22 0 00-4.8-3.12A46.4 46.4 0 0032.91.74a15.88 15.88 0 00-5.3-.71c-1.8.11-3.37.69-4.8 1.75-2.36 1.76-4.6 4.39-6.95 7.17-3.8 4.5-8.12 9.59-13.78 11.57a26.89 26.89 0 01-1.72.54l-.37.1v.05l.38-.1a26.6 26.6 0 001.73-.54 22.06 22.06 0 007.56-4.81 74.53 74.53 0 006.24-6.77c2.36-2.78 4.58-5.41 6.94-7.16C25.48-.13 28.49-.44 32.9.79c3.35.94 6.73 2.3 9.52 3.83 1.65.9 3.25 2.03 4.8 3.12l.77.54V8.2z" mask="url(#J)"/></g><g transform="translate(0 2.83)"><mask id="L" fill="#fff"><use xlink:href="#K"/></mask><path fill="#FFF" d="M48 9.2l-1.49-1.18c-1.49-1.19-3.03-2.42-4.63-3.4A35.28 35.28 0 0032.45.6C30.4.07 28.66-.1 27.1.08c-1.8.22-3.37.9-4.78 2.1C20.18 4 18.15 6.58 16 9.3c-3.83 4.86-8.16 10.36-14.1 12.33-.53.19-1.1.35-1.73.52l-.17.04v.06l.18-.05a25.69 25.69 0 001.75-.51c2.65-.89 5.21-2.54 7.82-5.06a71.8 71.8 0 006.3-7.3c2.14-2.71 4.17-5.28 6.32-7.11C24.94.03 28.14-.47 32.43.65c3.3.86 6.64 2.28 9.43 4 1.59 1 3.13 2.23 4.61 3.42L48 9.27v-.06z" mask="url(#L)"/></g><g transform="translate(0 2.42)"><mask id="N" fill="#fff"><use xlink:href="#M"/></mask><path fill="#FFF" d="M48 10.36a96.64 96.64 0 01-2.22-1.96c-1.44-1.3-2.92-2.64-4.46-3.72a29.08 29.08 0 00-9.35-4.2 13.23 13.23 0 00-5.37-.3 8.86 8.86 0 00-4.75 2.43c-1.97 1.9-3.82 4.42-5.78 7.1-3.82 5.22-8.15 11.15-14.34 13.1-.54.18-1.12.34-1.73.48v.06c.61-.15 1.2-.31 1.75-.49 2.77-.87 5.4-2.6 8.05-5.3a70.06 70.06 0 006.32-7.82c1.95-2.68 3.8-5.2 5.76-7.09C24.42.21 27.72-.48 31.96.54c3.21.78 6.61 2.3 9.32 4.2a46.46 46.46 0 014.46 3.7 95.74 95.74 0 002.26 2v-.08z" mask="url(#N)"/></g><g transform="translate(0 2)"><mask id="P" fill="#fff"><use xlink:href="#O"/></mask><path fill="#FFF" d="M48 11.61a68.56 68.56 0 01-2.95-2.86 45.12 45.12 0 00-4.3-4A24.4 24.4 0 0031.5.37c-2-.44-3.8-.47-5.4-.11a9.13 9.13 0 00-4.74 2.77 59.14 59.14 0 00-5.27 7.04c-3.8 5.59-8.1 11.92-14.54 13.85-.49.15-1.01.29-1.55.41v.06a23.6 23.6 0 001.57-.41c2.88-.87 5.58-2.68 8.25-5.53 2.35-2.5 4.36-5.48 6.32-8.35C17.92 7.48 19.6 5 21.4 3.06 23.9.4 27.3-.5 31.48.42c3.19.71 6.55 2.3 9.23 4.37a44.7 44.7 0 014.3 4c.98.98 1.96 1.98 2.99 2.9v-.08z" mask="url(#P)"/></g><path fill="#FFF" d="M44.34 10.7a44.66 44.66 0 00-4.16-4.3 21.07 21.07 0 00-9.16-4.56 11.5 11.5 0 00-5.43.09 9.34 9.34 0 00-4.7 3.1 66.08 66.08 0 00-4.82 7.02C12.36 17.94 8.16 24.6 1.64 26.59h.19c2.82-.9 5.45-2.74 8-5.62 2.36-2.66 4.35-5.83 6.28-8.9a66.18 66.18 0 014.82-7c2.47-2.95 5.86-4.02 10.08-3.17 3.17.64 6.5 2.3 9.13 4.55a44.8 44.8 0 014.16 4.3c1.2 1.33 2.4 2.7 3.7 3.89v-.08a53.94 53.94 0 01-3.66-3.85"/><g transform="translate(3.37 1.07)"><mask id="R" fill="#fff"><use xlink:href="#Q"/></mask><path fill="#FFF" d="M40.25 9.57a44.73 44.73 0 00-4.02-4.59 19.61 19.61 0 00-5.72-3.74A13.98 13.98 0 0023.96.06a9.4 9.4 0 00-6.93 3.9 72.78 72.78 0 00-4.42 6.98C9.32 16.6 5.64 22.9.01 25.52h.15a19.02 19.02 0 006.27-5.11c2.36-2.8 4.33-6.18 6.23-9.44A72.96 72.96 0 0117.07 4a9.35 9.35 0 016.9-3.9c4.73-.4 9.42 2.27 12.23 4.91a44.73 44.73 0 014.01 4.59 42.54 42.54 0 004.41 4.97v-.08a43 43 0 01-4.36-4.93" mask="url(#R)"/></g></g></svg>