<svg xmlns="http://www.w3.org/2000/svg" fill="none" viewBox="0 0 45 19"><path fill="#E40000" d="M2.006 6.394a4.02 4.02 0 00.811-.423l.066-.041a6.13 6.13 0 00.765-.577c.564-.5.913-.987 1.11-1.585a2 2 0 00.054-1.159c-.1-.321-.305-.6-.582-.79a1.683 1.683 0 00-1.056-.311c-.614 0-1.285.237-1.997.705l-.023.014a.656.656 0 00-.063.04 4.03 4.03 0 00-.468.357c-.3.29-.643.776-.622 1.19a.554.554 0 00.216.422c.13.097.29.147.452.141.364 0 .765-.199 1.037-.365a.678.678 0 01.052-.035l.141-.096.047-.031a5.5 5.5 0 011.242-.687.962.962 0 01.314-.06c.048 0 .095.005.141.015a.423.423 0 01.3.233c.104.214.078.551-.064.86a3.747 3.747 0 01-.987 1.234c-.201.176-.42.332-.652.464l-.017.01c-.097.053-.198.1-.301.14h-.015l-.084.032c-.456.122-.18-.282-.18-.282a3.65 3.65 0 01.312-.315l.19-.18.013-.016a.468.468 0 00.181-.343.403.403 0 00-.416-.342h-.014a.836.836 0 00-.488.204c-.127.105-.238.23-.327.368-.12.192-.375.683-.127 1.073a.54.54 0 00.492.236c.187-.003.372-.037.547-.1zM10.844.843a.65.65 0 00-.654.646.646.646 0 101.291 0 .636.636 0 00-.637-.65v.004zm-.52 5.662h1.015V2.461l-1.015.165v3.88zM8.11 2.388c-.478.01-.947.133-1.369.36l-.114.06.272.61.155-.074c.3-.146.627-.223.96-.224.367.014.518.183.518.535v.208H7.93c-.967 0-1.57.512-1.586 1.308 0 .756.63 1.41 1.507 1.41.705 0 1.307-.23 1.712-.634V3.785c0-1.052-.75-1.397-1.452-1.397zm.424 3.354c-.16.092-.343.137-.528.132-.409 0-.592-.313-.585-.679 0-.301.195-.646.705-.646h.408v1.193zm10.28.123a.764.764 0 01-.59-.224c-.182-.199-.264-.603-.241-1.035h2.19v-.101c-.02-1.433-.508-2.086-1.578-2.086-1.194 0-1.66 1.098-1.67 2.13 0 .654.24 1.31.691 1.686.313.242.7.367 1.095.354.244 0 .487-.036.72-.107a2.9 2.9 0 00.763-.371l-.282-.59a1.974 1.974 0 01-1.098.344zm-.219-2.687c.451 0 .518.49.518.795h-1.1c.017-.395.18-.795.582-.795zm-6.441.007v3.323h1.035V3.38c.197-.16.441-.25.695-.258.14-.008.28.007.416.043l.282-.643a1.762 1.762 0 00-.684-.123 2.362 2.362 0 00-1.744.787zm10.173 2.683c-.423-.032-.51-.218-.51-.527V1.345l-1.02.173V5.28c0 .893.485 1.27 1.295 1.27.13-.004.26-.018.39-.041v-.64s-.097.004-.155 0zm-6.424-4.523l-1.042.166v3.782c0 .846.495 1.248 1.324 1.248.13-.001.26-.014.388-.038v-.629h-.142c-.437-.014-.523-.255-.523-.534V3.212h.67v-.746h-.67l-.005-1.121z"/><path fill="#F7F8F9" d="M15.384 17.661h-4.679V10.23a.668.668 0 00-1.337 0v8.103a.669.669 0 00.669.668h5.347a.669.669 0 000-1.337v-.003zm-8.838-3.603a2.767 2.767 0 00.902-1.99 2.295 2.295 0 00-.86-1.804c-.564-.464-1.365-.705-2.317-.705H.86a.763.763 0 00-.763.763v7.916a.763.763 0 00.763.763h3.565c.987 0 1.833-.282 2.444-.801a2.57 2.57 0 00.918-1.943 2.634 2.634 0 00-1.241-2.199zm-4.922-2.975h2.647c1.017 0 1.65.378 1.65.987a1.248 1.248 0 01-.451.903c-.251.224-.705.492-1.454.494H1.624v-2.384zm4.25 5.954c-.33.282-.833.434-1.45.434h-2.8v-2.48h2.71c1.322 0 1.924.654 1.924 1.262a1.027 1.027 0 01-.384.784zm16.648-7.04a.577.577 0 00-1.039 0l-3.964 8.17a.578.578 0 001.04.504l1.095-2.256h4.697l1.095 2.256a.577.577 0 101.039-.503l-3.963-8.17zm1.27 5.263h-3.578l1.788-3.687 1.79 3.687zm21.116 3.075l-4.26-4.847 3.715-3.08a.382.382 0 10-.488-.588l-5.735 4.75v-4.482a.382.382 0 10-.764 0v8.522a.382.382 0 10.764 0v-3.055l1.913-1.585 4.277 4.864a.382.382 0 10.574-.505l.004.006zm-13.205-7.626c1.128 0 2.158.48 3.042 1.427a.48.48 0 00.705-.652c-1.073-1.148-2.331-1.73-3.74-1.73-1.875 0-4.666 1.223-4.666 4.593 0 3.212 2.355 4.653 4.689 4.653 1.872 0 3.061-1.108 3.728-2.037a.48.48 0 10-.775-.557c-.538.748-1.485 1.64-2.953 1.64-1.723 0-3.734-.968-3.734-3.696-.007-2.673 2.212-3.641 3.704-3.641z"/><path fill="#181818" d="M15.384 17.661h-4.679V10.23a.668.668 0 00-1.337 0v8.103a.669.669 0 00.669.668h5.347a.669.669 0 000-1.337v-.003zm-8.838-3.603a2.767 2.767 0 00.902-1.99 2.295 2.295 0 00-.86-1.804c-.564-.464-1.365-.705-2.317-.705H.86a.763.763 0 00-.763.763v7.916a.763.763 0 00.763.763h3.565c.987 0 1.833-.282 2.444-.801a2.57 2.57 0 00.918-1.943 2.634 2.634 0 00-1.241-2.199zm-4.922-2.975h2.647c1.017 0 1.65.378 1.65.987a1.248 1.248 0 01-.451.903c-.251.224-.705.492-1.454.494H1.624v-2.384zm4.25 5.954c-.33.282-.833.434-1.45.434h-2.8v-2.48h2.71c1.322 0 1.924.654 1.924 1.262a1.027 1.027 0 01-.384.784zm16.648-7.04a.577.577 0 00-1.039 0l-3.964 8.17a.578.578 0 001.04.504l1.095-2.256h4.697l1.095 2.256a.577.577 0 101.039-.503l-3.963-8.17zm1.27 5.263h-3.578l1.788-3.687 1.79 3.687zm21.116 3.075l-4.26-4.847 3.715-3.08a.382.382 0 10-.488-.588l-5.735 4.75v-4.482a.382.382 0 10-.764 0v8.522a.382.382 0 10.764 0v-3.055l1.913-1.585 4.277 4.864a.382.382 0 10.574-.505l.004.006zm-13.205-7.626c1.128 0 2.158.48 3.042 1.427a.48.48 0 00.705-.652c-1.073-1.148-2.331-1.73-3.74-1.73-1.875 0-4.666 1.223-4.666 4.593 0 3.212 2.355 4.653 4.689 4.653 1.872 0 3.061-1.108 3.728-2.037a.48.48 0 10-.775-.557c-.538.748-1.485 1.64-2.953 1.64-1.723 0-3.734-.968-3.734-3.696-.007-2.673 2.212-3.641 3.704-3.641z"/></svg>