<svg xmlns="http://www.w3.org/2000/svg" fill="none" viewBox="0 0 118 48"><defs/><path fill="#E40000" d="M5.263 14.59c.815-.296 1.482-.703 2.148-1.11l.186-.111c.666-.408 1.333-.926 2-1.519 1.48-1.296 2.407-2.592 2.925-4.148.223-.63.519-1.889.149-3.037a3.872 3.872 0 00-1.519-2.074c-.074-.074-1-.815-2.778-.815-1.592 0-3.37.63-5.259 1.852l-.074.037c-.037.037-.111.074-.185.111a.511.511 0 01-.148.111c-.37.26-.74.556-1.074.852C.856 5.517-.07 6.776.004 7.85c.037.445.222.852.556 1.111.333.26.703.37 1.185.37.963 0 2-.518 2.74-.962.038-.037.075-.074.149-.074.11-.074.259-.148.37-.26l.111-.074c1.037-.666 2.074-1.407 3.26-1.814.296-.111.592-.149.814-.149.111 0 .26 0 .37.037.37.075.63.297.778.63.26.556.222 1.445-.148 2.26-.518 1.11-1.407 2.184-2.63 3.221-.63.519-1.185.926-1.703 1.223l-.037.037a3.002 3.002 0 01-.778.37h-.037c-.074.037-.148.074-.222.074-1.185.333-.482-.74-.482-.74.26-.297.519-.556.815-.815.148-.149.333-.297.482-.482l.037-.037c.222-.222.481-.481.481-.889-.037-.555-.592-.889-1.111-.889h-.037c-.481 0-.963.297-1.296.556-.297.26-.63.63-.852.963-.333.518-1 1.777-.333 2.815.259.407.703.63 1.296.63.444-.075.926-.149 1.481-.371zM28.484 0a1.7 1.7 0 00-1.703 1.704c0 .963.74 1.703 1.703 1.703.963 0 1.704-.74 1.704-1.703 0-.445-.148-.89-.481-1.185A1.743 1.743 0 0028.484 0zM27.114 14.889h2.667V4.259l-2.667.445V14.89zM21.3 4.073c-1.26 0-2.408.37-3.593.963l-.296.148.703 1.593.408-.185c.815-.37 1.703-.63 2.518-.593.963.037 1.37.482 1.37 1.407v.556h-1.592c-2.556 0-4.111 1.333-4.148 3.444 0 2 1.666 3.704 3.963 3.704 1.852 0 3.444-.593 4.481-1.667V7.777c0-2.778-1.963-3.704-3.815-3.704zm1.11 8.815c-.259.185-.814.333-1.37.333-1.074 0-1.555-.815-1.555-1.778.037-.777.518-1.703 1.851-1.703h1.075v3.148zM49.41 13.221c-.741 0-1.223-.222-1.556-.592-.481-.519-.704-1.593-.63-2.704h5.741v-.26c-.037-3.777-1.333-5.48-4.148-5.48-3.148 0-4.37 2.888-4.37 5.592-.037 1.704.63 3.444 1.814 4.407.704.593 1.704.926 2.89.926.629 0 1.296-.074 1.888-.296 1.148-.37 2-.963 2-.963l-.74-1.556a5.122 5.122 0 01-2.89.926zm-.556-7.074c1.185 0 1.37 1.297 1.37 2.074h-2.888c.037-1.037.444-2.074 1.518-2.074zM31.929 6.183v8.74h2.703V6.703c.37-.333 1.111-.667 1.815-.667.667-.037 1.111.111 1.111.111l.74-1.703c-.295-.148-1-.334-1.814-.334-1.148 0-2.963.334-4.555 2.074zM58.631 13.22c-1.11-.074-1.333-.555-1.333-1.37V1.332l-2.667.444v9.89c0 2.332 1.26 3.332 3.408 3.332.444 0 1.037-.11 1.037-.11V13.22h-.445zM41.743 1.332l-2.74.444v9.926c0 2.222 1.296 3.26 3.48 3.26.52 0 1-.112 1-.112v-1.666h-.37c-1.148-.037-1.37-.667-1.37-1.408V6.184h1.778V4.22h-1.778V1.332z"/><path fill="#F7F8F9" d="M40.147 44.443H27.85V24.925c0-.963-.778-1.74-1.74-1.74-.964 0-1.741.777-1.741 1.74v21.296c0 .963.777 1.74 1.74 1.74h14.037c.963 0 1.74-.777 1.74-1.74s-.777-1.778-1.74-1.778zM16.925 35.036c1.519-1.444 2.37-3.37 2.37-5.222 0-1.852-.814-3.555-2.259-4.74-1.48-1.223-3.592-1.852-6.073-1.852H2c-1.111 0-2 .889-2 2v20.777c0 1.11.889 2 2 2h9.37c2.593 0 4.815-.741 6.407-2.111 1.519-1.297 2.408-3.185 2.408-5.111 0-2.148-1.111-4.334-3.26-5.74zM4 27.222h6.963c2.666 0 4.333 1 4.333 2.592 0 .815-.445 1.704-1.185 2.37-.667.593-1.852 1.297-3.815 1.297H4.037v-6.26H4zM15.148 42.85c-.89.74-2.185 1.148-3.815 1.148H4V37.48h7.111c3.481 0 5.037 1.704 5.037 3.297.037.777-.334 1.518-1 2.074zM58.887 24.073a1.524 1.524 0 00-1.37-.851c-.593 0-1.112.333-1.37.851L45.738 45.517c-.37.741-.037 1.667.704 2.037.74.37 1.666.037 2.037-.703l2.889-5.926H63.7l2.89 5.926c.259.555.814.851 1.37.851.222 0 .444-.037.666-.148a1.53 1.53 0 00.704-2.037L58.887 24.073zm3.333 13.815h-9.407l4.703-9.666 4.704 9.666zM117.7 45.924l-11.185-12.74 9.778-8.074c.444-.37.481-1 .148-1.408-.371-.444-1-.481-1.408-.148L99.96 36.035v-11.74c0-.556-.444-1-1-1s-1 .444-1 1v22.37c0 .555.444 1 1 1s1-.445 1-1v-8.037l5.037-4.148 11.222 12.777a.986.986 0 00.74.334.95.95 0 00.667-.26c.37-.333.444-.963.074-1.407zM82.997 25.926c2.963 0 5.667 1.259 8 3.74.481.519 1.26.519 1.778.074.518-.481.518-1.259.074-1.777-2.815-3-6.111-4.556-9.815-4.556-4.925 0-12.259 3.222-12.259 12.074 0 8.444 6.185 12.222 12.296 12.222 4.926 0 8.037-2.926 9.778-5.37.407-.556.259-1.334-.297-1.741-.555-.407-1.333-.26-1.74.296-1.407 1.963-3.889 4.296-7.74 4.296-4.52 0-9.815-2.555-9.815-9.703 0-7 5.814-9.555 9.74-9.555z"/><path fill="#FAFAFA" d="M40.147 44.443H27.85V24.925c0-.963-.778-1.74-1.74-1.74-.964 0-1.741.777-1.741 1.74v21.296c0 .963.777 1.74 1.74 1.74h14.037c.963 0 1.74-.777 1.74-1.74s-.777-1.778-1.74-1.778zM16.925 35.036c1.519-1.444 2.37-3.37 2.37-5.222 0-1.852-.814-3.555-2.259-4.74-1.48-1.223-3.592-1.852-6.073-1.852H2c-1.111 0-2 .889-2 2v20.777c0 1.11.889 2 2 2h9.37c2.593 0 4.815-.741 6.407-2.111 1.519-1.297 2.408-3.185 2.408-5.111 0-2.148-1.111-4.334-3.26-5.74zM4 27.222h6.963c2.666 0 4.333 1 4.333 2.592 0 .815-.445 1.704-1.185 2.37-.667.593-1.852 1.297-3.815 1.297H4.037v-6.26H4zM15.148 42.85c-.89.74-2.185 1.148-3.815 1.148H4V37.48h7.111c3.481 0 5.037 1.704 5.037 3.297.037.777-.334 1.518-1 2.074zM58.887 24.073a1.524 1.524 0 00-1.37-.851c-.593 0-1.112.333-1.37.851L45.738 45.517c-.37.741-.037 1.667.704 2.037.74.37 1.666.037 2.037-.703l2.889-5.926H63.7l2.89 5.926c.259.555.814.851 1.37.851.222 0 .444-.037.666-.148a1.53 1.53 0 00.704-2.037L58.887 24.073zm3.333 13.815h-9.407l4.703-9.666 4.704 9.666zM117.7 45.924l-11.185-12.74 9.778-8.074c.444-.37.481-1 .148-1.408-.371-.444-1-.481-1.408-.148L99.96 36.035v-11.74c0-.556-.444-1-1-1s-1 .444-1 1v22.37c0 .555.444 1 1 1s1-.445 1-1v-8.037l5.037-4.148 11.222 12.777a.986.986 0 00.74.334.95.95 0 00.667-.26c.37-.333.444-.963.074-1.407zM82.997 25.926c2.963 0 5.667 1.259 8 3.74.481.519 1.26.519 1.778.074.518-.481.518-1.259.074-1.777-2.815-3-6.111-4.556-9.815-4.556-4.925 0-12.259 3.222-12.259 12.074 0 8.444 6.185 12.222 12.296 12.222 4.926 0 8.037-2.926 9.778-5.37.407-.556.259-1.334-.297-1.741-.555-.407-1.333-.26-1.74.296-1.407 1.963-3.889 4.296-7.74 4.296-4.52 0-9.815-2.555-9.815-9.703 0-7 5.814-9.555 9.74-9.555z"/></svg>