<svg viewBox="0 0 25 25" fill="none" xmlns="http://www.w3.org/2000/svg">
<path d="M12.002 21.0036C12.002 21.0036 19.2033 17.403 19.2033 12.0021V5.70096L12.002 3.00049L4.80078 5.70096V12.0021C4.80078 17.403 12.002 21.0036 12.002 21.0036Z" fill="black" stroke="black" stroke-width="1.50026" stroke-linecap="round" stroke-linejoin="round"/>
<path d="M12.0022 14.5647H12.0083" stroke="white" stroke-width="1.50026" stroke-linecap="round" stroke-linejoin="round"/>
<path d="M10.1272 12.6897C10.6245 12.1925 11.299 11.9132 12.0022 11.9132C12.7054 11.9132 13.3799 12.1925 13.8772 12.6897" stroke="white" stroke-width="1.50026" stroke-linecap="round" stroke-linejoin="round"/>
<path d="M8.25146 10.8141C8.744 10.3216 9.32873 9.93085 9.97227 9.66427C10.6158 9.3977 11.3056 9.2605 12.0021 9.2605C12.6987 9.2605 13.3884 9.3977 14.032 9.66427C14.6755 9.93085 15.2602 10.3216 15.7528 10.8141" stroke="white" stroke-width="1.50026" stroke-linecap="round" stroke-linejoin="round"/>
</svg>
