<svg xmlns="http://www.w3.org/2000/svg" viewBox="0 0 22 16"><defs/><g fill="none" fill-rule="evenodd"><path fill="#A4A4A4" fill-rule="nonzero" d="M.85 5.34A4.18 4.18 0 010 2.75C0 1.77.3.85.85.15c.16-.2.43-.2.6 0a.65.65 0 010 .77c-.39.5-.6 1.14-.6 1.83 0 .7.21 1.35.6 1.84a.64.64 0 010 .75.37.37 0 01-.3.16.37.37 0 01-.3-.16zm9.49-.75c.38-.5.6-1.14.6-1.84 0-.7-.22-1.34-.6-1.83a.65.65 0 010-.76c.16-.21.44-.21.6 0 .55.7.85 1.61.85 2.6 0 .97-.3 1.89-.85 2.58a.38.38 0 01-.3.16.38.38 0 01-.3-.16.64.64 0 010-.76zm-7.36-.03a1.93 1.93 0 010-2.83.58.58 0 01.79 0 .5.5 0 010 .74.92.92 0 00-.3.67c0 .26.1.5.3.68a.5.5 0 010 .74.55.55 0 01-.4.15.57.57 0 01-.39-.15z"/><path fill="#A4A4A4" fill-rule="nonzero" d="M8.8 3.82a.93.93 0 00.3-.68.9.9 0 00-.3-.67.5.5 0 010-.75.58.58 0 01.8 0 1.93 1.93 0 010 2.84.57.57 0 01-.4.15.56.56 0 01-.4-.15.5.5 0 010-.74z"/><path fill="#3A3D43" fill-rule="nonzero" d="M20.37 8.21H6.97V5.25c0-.3-.21-.54-.5-.54-.27 0-.5.25-.5.54v2.96H2.42c-.9 0-1.63.79-1.63 1.75v4c0 .97.73 1.75 1.63 1.75h17.95c.9 0 1.63-.78 1.63-1.74V9.96c0-.96-.73-1.75-1.63-1.75z"/><path fill="#EF5656" d="M4.48 13.9a.78.78 0 01-.55.24.82.82 0 01-.3-.06.76.76 0 01-.26-.17.78.78 0 01-.23-.56c0-.2.08-.4.23-.56a.8.8 0 011.1 0 .79.79 0 01.24.56.79.79 0 01-.23.56z"/><path fill="#7EC732" d="M4.65 10.51a.78.78 0 01-.42.43.78.78 0 01-.3.06.82.82 0 01-.56-.23.93.93 0 01-.17-.26.77.77 0 01-.06-.3c0-.1.02-.2.06-.3a.83.83 0 01.17-.25l.12-.1.13-.08.15-.04a.78.78 0 01.88.48.78.78 0 01.06.3.78.78 0 01-.06.3z"/></g></svg>