<svg xmlns="http://www.w3.org/2000/svg" viewBox="0 0 24 24"><defs/><g fill="none" fill-rule="evenodd" transform="translate(1 3)"><path fill="#30343A" fill-rule="nonzero" d="M15.7 6.25H1.1c-.6 0-1.1.5-1.1 1.1v8.3c0 .6.5 1.1 1.1 1.1h10.23c.61 0 1.36.05 2.08-.27.48-.37 2.86-3.4 3-3.61.24-.38.4-.84.4-1.23V7.35c0-.6-.5-1.1-1.1-1.1zM9.26 9.7v4.69c0 .62-.5 1.12-1.13 1.12H2.37a1.13 1.13 0 01-1.13-1.12V8.62c0-.62.5-1.13 1.13-1.13h5.76c.62 0 1.13.5 1.13 1.13V9.7z"/><circle cx="15.69" cy="5.75" r="5.75" fill="#30343A" stroke="#FFF" stroke-width=".5"/><path fill="#FFF" fill-rule="nonzero" d="M14.64 8.62c.18 0 .4-.05.66-.13.37-.13.66-.32.95-.5l.08-.04a7.15 7.15 0 00.9-.66 4.02 4.02 0 001.3-1.82c.1-.28.23-.82.07-1.33a1.72 1.72 0 00-.69-.9 2.02 2.02 0 00-1.24-.37c-.72 0-1.51.27-2.35.81l-.03.02a3.55 3.55 0 00-.14.09 5 5 0 00-.49.36c-.35.34-.76.9-.73 1.37 0 .2.1.37.26.49.15.11.34.17.53.16.43 0 .9-.23 1.22-.42l.06-.04.17-.1.05-.04c.46-.3.93-.61 1.47-.8.11-.04.24-.06.37-.06.05 0 .1 0 .16.02a.5.5 0 01.35.26c.12.25.1.64-.07 1-.23.47-.63.95-1.18 1.4a4.63 4.63 0 01-.76.54l-.02.01-.36.17h-.02l-.1.04c-.53.14-.2-.32-.2-.32.1-.13.23-.25.36-.36l.22-.2.02-.02c.1-.1.22-.22.21-.4 0-.24-.25-.39-.49-.4h-.01a1 1 0 00-.58.24c-.15.12-.28.27-.38.43-.14.22-.44.78-.15 1.23.11.18.31.27.58.27z"/></g></svg>