<svg xmlns="http://www.w3.org/2000/svg" viewBox="0 0 24 24"><defs/><g fill="none" fill-rule="evenodd" transform="translate(1 5)"><path fill="#30343A" fill-rule="nonzero" d="M20.81 6.56H8.44c-.52 0-.94.38-.94.83v6.22c0 .45.42.83.94.83h8.67c.52 0 1.15.03 1.76-.21.4-.28 2.42-2.54 2.54-2.7.2-.3.34-.64.34-.93V7.4c0-.46-.42-.83-.94-.83zm-5.46 2.6v3.5c0 .47-.43.84-.95.84H9.5c-.53 0-.96-.37-.96-.84V8.34c0-.47.43-.85.96-.85h4.88c.53 0 .96.38.96.85v.81z"/><path fill="#30343A" fill-rule="nonzero" d="M.94 7.88H13.3c.52 0 .94-.38.94-.83V.83c0-.45-.42-.83-.94-.83H4.64c-.52 0-1.15-.03-1.76.2C2.48.5.46 2.76.34 2.92c-.2.29-.34.63-.34.92v3.22c0 .45.42.82.94.82zm5.46-2.6v-3.5c0-.47.43-.85.95-.85h4.89c.53 0 .95.38.95.85V6.1c0 .47-.42.84-.95.84H7.35c-.52 0-.95-.37-.95-.84V5.3z"/><ellipse cx="12.36" cy="6.66" fill="#30343A" stroke="#FFF" stroke-width=".5" rx="4.5" ry="4.59" transform="matrix(-1 0 0 1 24.71 0)"/><path fill="#FFF" fill-rule="nonzero" d="M13.06 5.43h-2.54l.65.57a.18.18 0 010 .29.24.24 0 01-.16.06.24.24 0 01-.17-.06l-1.03-.91a.21.21 0 01-.03-.03v-.01a.2.2 0 01-.02-.03V5.3l-.01-.03a.18.18 0 010-.08v-.02l.01-.01a.2.2 0 01.02-.03.21.21 0 01.03-.04l1.03-.9a.25.25 0 01.33 0 .18.18 0 010 .28l-.65.56h2.54c.84 0 1.52.6 1.52 1.34 0 .11-.1.2-.23.2-.12 0-.23-.09-.23-.2 0-.52-.47-.94-1.06-.94zm-3.5.84c.12 0 .23.1.23.2 0 .52.47.94 1.06.94h2.54l-.65-.57a.18.18 0 010-.28.25.25 0 01.32 0l1.04.9.03.04a.18.18 0 01.02.03v.01l.01.03a.18.18 0 010 .08v.02l-.01.02a.2.2 0 01-.02.02v.01a.21.21 0 01-.03.03l-1.03.91a.24.24 0 01-.17.06.24.24 0 01-.16-.06.18.18 0 010-.28l.65-.57h-2.54c-.84 0-1.52-.6-1.52-1.34 0-.1.1-.2.23-.2z"/></g></svg>