<svg xmlns="http://www.w3.org/2000/svg" viewBox="0 0 24 24"><defs/><g fill="#30343A"><path stroke="#FFF" stroke-width=".56" d="M19.3 16.33h0c-.03-.13-.13-.2-.24-.18-.12.02-.2.14-.18.26 0 0 .7 3.92-1.48 4.7-.16.06-.32.12-.5.14-2.6.43-5.44-1.91-5.44-1.91l-.03-.03h-.01a.41.41 0 00-.6.14.48.48 0 00.14.63s3.69 2.85 6.65 1.67c.19-.1.38-.18.55-.32.2-.13 1.65-1.08 1.23-4.54-.04-.36-.09-.56-.09-.56z"/><path d="M10.9 18.57c.12.35.33.7.65 1.02v.49c-.32 0-.74-.29-1.26-.86a.4.4 0 00-.33-.1.41.41 0 00-.3.2l-.96 1.6-.19-.6.51-1.94a.46.46 0 00-.12-.45 144.63 144.63 0 01-2.55-2.42.4.4 0 00-.35-.1.42.42 0 00-.3.22l-2.2 4.31-.2-.73 1.01-5.37a.46.46 0 00-.13-.41c0-.01-1-.97-1.55-1.66-.7-.88-.63-1.74-.52-1.88.02-.03.14-.09.37-.09.22 0 .79.06 1.41.63.65.58 1.55 1.64 1.56 1.65a.4.4 0 00.4.14l5.04-1.07.69.21-4.06 2.34a.46.46 0 00-.1.69s.87 1.01 2.27 2.7a.4.4 0 00.42.14l1.82-.55.57.2-1.5 1.03a.44.44 0 00-.2.3c-.01.14.06.24.1.36z"/><path stroke="#FFF" stroke-width=".25" d="M3.92 7.9a.46.46 0 01-.26-.58A9.62 9.62 0 015.1 4.57s0 0 0 0a.43.43 0 01.07-.09A8.78 8.78 0 0112.1 1h0a8.75 8.75 0 016.93 3.49.4.4 0 01.06.07v.01a9.8 9.8 0 011.96 5.92c0 4.09-2.46 7.7-6.12 9a.4.4 0 01-.13.02.43.43 0 01-.4-.31.46.46 0 01.26-.57 8.05 8.05 0 003.41-2.35 9.91 9.91 0 00-2.34-.98 10.88 10.88 0 01-1.09 2.8.42.42 0 01-.36.21.4.4 0 01-.22-.07.47.47 0 01-.14-.62c.4-.68.73-1.55.98-2.53a13.69 13.69 0 00-2.8-.29c-.64 0-1.27.04-1.88.13a.43.43 0 01-.47-.4.45.45 0 01.37-.5 14.83 14.83 0 011.98-.13c1.03 0 2.04.1 3 .31.2-1.01.32-2.12.34-3.27h-1.62c-.24 0-.43-.2-.43-.45s.2-.46.43-.46h1.62a19.33 19.33 0 00-.33-3.27 14.47 14.47 0 01-6.02 0c-.12.63-.21 1.3-.27 2a.43.43 0 01-.46.42c-.24-.02-.41-.24-.4-.5.07-.74.17-1.46.3-2.13a10.7 10.7 0 01-2.68-1.14 8.72 8.72 0 00-1.12 2.21.42.42 0 01-.54.27zm8.18-1.73c.97 0 1.92-.1 2.81-.29-.63-2.48-1.75-3.98-2.81-3.98-1.14 0-2.2 1.6-2.8 3.98.88.19 1.83.3 2.8.3zm3.84.38c.2 1.07.33 2.24.36 3.48h3.89a8.86 8.86 0 00-1.57-4.62c-.78.48-1.7.86-2.69 1.14zm0 7.87c.98.28 1.9.66 2.69 1.15a8.9 8.9 0 001.55-4.63H16.3a20.42 20.42 0 01-.37 3.48zm2.13-9.72a8.05 8.05 0 00-3.9-2.51c.65.82 1.2 2.02 1.57 3.49a9.96 9.96 0 002.33-.98zm-8.05-2.5a8.07 8.07 0 00-3.9 2.5 9.93 9.93 0 002.34.98 9.34 9.34 0 011.56-3.48z"/></g></svg>