<svg xmlns="http://www.w3.org/2000/svg" viewBox="0 0 24 24"><defs/><g fill="#30343A"><path stroke="#30343A" d="M19.81 6H5.13A2.12 2.12 0 003 8.13v10.39a2.12 2.12 0 002.13 2.12h3.9v.89c0 .23.24.47.48.47h6.04c.23 0 .47-.24.47-.47v-.89h3.85A2.12 2.12 0 0022 18.52V8.07A2.2 2.2 0 0019.81 6zm1.06 12.52a.93.93 0 01-.94.94H5.07a.93.93 0 01-.95-.94V7.95c0-.53.42-.95.95-.95h14.86c.53 0 .94.42.94.95v10.57z"/><path d="M10.85 5.67l-1.7-1.72s-.36-.44.05-.72c.41-.33.77.11.77.11l1.88 1.83 3.24-3.05s.3-.27.71 0c.41.28.06.67.06.67L12.97 5.6V6h-2.12v-.33zm.33 4.51l4.37 2.28s.45.24.45.49a.68.68 0 01-.36.57c-.19.08-4.64 2.44-4.64 2.44s-.36.08-.55 0c-.18-.08-.36-.32-.36-.49L10 10.5s0-.4.36-.48c.55-.09.82.16.82.16z"/></g></svg>