<svg xmlns="http://www.w3.org/2000/svg" viewBox="0 0 24 24"><defs/><g fill="none"><path fill="#FFBD4A" d="M6.24 10.18c0-.17-.13-.3-.28-.3H2.99v1.8h3.25v-1.5zm.36 3.21v.17a.65.65 0 01-.64.66H2.99v1.42c0 .6.5 1.1 1.11 1.1h3.59V13.5h-.73a.71.71 0 01-.36-.1z"/><path fill="#FFBD4A" d="M6.24 13.56v-1.51H2.99v1.8h2.97c.15 0 .28-.13.28-.3zm.36-2.6v1.81c0 .2.16.36.36.36h1.81c.2 0 .36-.16.36-.36v-1.8c0-.2-.16-.37-.36-.37h-1.8c-.2 0-.37.16-.37.36zm0-.78v.16c.1-.06.23-.1.36-.1h.73V7H4.1c-.61 0-1.11.5-1.11 1.1v1.43h2.97a.65.65 0 01.64.66z"/><path fill="#30343A" d="M21.53 5H2.45A1.45 1.45 0 001 6.45v10.84c0 .8.65 1.44 1.45 1.44h13.37c.8 0 1.77.07 2.7-.36.64-.48 3.75-4.43 3.93-4.71.32-.5.52-1.1.52-1.61v-5.6A1.45 1.45 0 0021.53 5zM13.1 9.52v6.12c0 .81-.66 1.47-1.48 1.47H4.1a1.47 1.47 0 01-1.47-1.47V8.1c0-.81.66-1.47 1.47-1.47h7.53c.82 0 1.48.66 1.48 1.47v1.42z"/><path fill="#FFBD4A" d="M9.5 10.18v1.5h3.25v-1.8H9.77c-.15 0-.28.13-.28.3zm-.37 3.38v-.17a.71.71 0 01-.36.1h-.72v3.26h3.58c.62 0 1.12-.5 1.12-1.11v-1.42H9.77a.65.65 0 01-.64-.66z"/><path fill="#FFBD4A" d="M11.63 6.99H8.05v3.25h.72c.13 0 .26.04.36.1v-.17a.65.65 0 01.64-.65h2.98V8.1c0-.61-.5-1.11-1.12-1.11zM9.5 13.56c0 .16.13.3.28.3h2.98v-1.81H9.49v1.5z"/></g></svg>